<?xml version="1.0" encoding="UTF-8"?>
<svg width="154px" height="154px" viewBox="0 0 154 154" version="1.1" xmlns="http://www.w3.org/2000/svg" xmlns:xlink="http://www.w3.org/1999/xlink">
    <!-- Generator: Sketch 52.1 (67048) - http://www.bohemiancoding.com/sketch -->
    <title>webCam</title>
    <desc>Created with Sketch.</desc>
    <g id="Page-1" stroke="none" stroke-width="1" fill="none" fill-rule="evenodd">
        <g id="webCam" fill-rule="nonzero">
            <rect id="Rectangle" fill="#FFFFFF" x="2" y="2" width="150" height="150"></rect>
            <path d="M148.982,1.32 C114.442,1.7 79.821,0.754 46.27,0.734 C31.294,0.734 16.402,0.734 1.96,0.735 L0.602,0.734 L0.603,2.092 C0.668,53.638 0.731,103.688 0.792,152.092 L0.793,153.262 L1.96,153.261 C42.462,153.231 81.446,153.252 119.544,153.418 C126.624,153.449 138.273,153.518 145.534,153.477 C160.616,153.391 145.37,151.875 138.153,151.663 C92.844,150.311 43.323,150.563 3.266,151.004 L1.959,151.019 L3.035,152.094 C2.493,101.888 2.541,51.839 2.718,2.094 L1.96,2.851 C52.302,3.029 102.349,3.338 151.96,3.297 L150.755,2.092 C150.792,46.859 151.113,91.27 152.07,135.24 C152.178,140.185 152.614,161.103 153.124,147.642 C153.645,133.859 153.28,106.584 153.228,100.615 C152.956,68.935 153.104,35.788 152.763,2.092 L152.754,1.28 L151.959,1.288 C150.987,1.299 149.985,1.31 148.982,1.32 Z M152.345,11.479 C152.534,10.837 152.934,15.626 152.694,16.439 C152.505,17.082 152.105,12.293 152.345,11.479 Z" id="Shape" fill="#B8BBBD"></path>
            <path d="M91.875,32.548 C91.775,32.07 92.701,32.435 92.905,32.218 C93.571,31.518 93.748,30.466 94.634,30.065 C94.697,30.037 94.816,30 94.825,29.924 C94.843,29.766 93.587,28.908 93.382,28.821 C92.083,28.273 91.999,28.771 92.113,29.324 C92.536,31.36 89.015,30.137 90.597,33.058 C90.653,33.161 90.871,33.58 91.34,33.812 C91.82,34.049 91.693,33.63 91.686,33.556 C91.653,33.156 91.973,33.028 91.875,32.548 Z M91.505,32.387 C91.654,32.503 91.937,32.789 91.747,32.642 C91.597,32.527 91.315,32.24 91.505,32.387 Z" id="Shape" fill="#B8BBBD"></path>
            <path d="M94.041,34.792 C94.09,34.254 94.994,34.731 95.293,34.508 C96.264,33.783 96.812,32.63 97.926,32.256 C98.006,32.23 98.15,32.198 98.185,32.115 C98.258,31.941 97.155,30.889 96.956,30.777 C95.702,30.066 95.442,30.612 95.386,31.235 C95.173,33.527 91.685,31.891 92.46,35.258 C92.486,35.376 92.589,35.859 93.031,36.154 C93.483,36.455 93.48,35.981 93.499,35.898 C93.591,35.448 93.99,35.332 94.041,34.792 Z M93.686,34.583 C93.813,34.724 94.03,35.064 93.869,34.886 C93.742,34.746 93.524,34.405 93.686,34.583 Z" id="Shape" fill="#B8BBBD"></path>
            <path d="M96.003,39.094 C96.122,38.418 97.202,38.654 97.6,38.265 C98.892,37.006 99.697,35.386 101.132,34.498 C101.236,34.435 101.417,34.341 101.47,34.226 C101.579,33.985 100.307,33.125 100.07,33.065 C98.574,32.679 98.192,33.446 98.054,34.231 C97.55,37.113 93.353,36.458 93.973,40.274 C93.995,40.408 94.073,40.959 94.596,41.148 C95.13,41.342 95.177,40.763 95.206,40.655 C95.375,40.069 95.885,39.773 96.003,39.094 Z M95.583,38.976 C95.729,39.099 95.962,39.431 95.778,39.276 C95.634,39.153 95.399,38.82 95.583,38.976 Z" id="Shape" fill="#B8BBBD"></path>
            <path d="M97.809,42.582 C98.024,41.851 99.158,42.077 99.634,41.648 C101.189,40.259 102.266,38.493 103.925,37.501 C104.044,37.43 104.253,37.325 104.325,37.199 C104.472,36.937 103.216,36.044 102.969,35.985 C101.407,35.608 100.898,36.444 100.648,37.292 C99.731,40.409 95.296,39.812 95.469,43.905 C95.476,44.049 95.488,44.64 96.026,44.831 C96.578,45.026 96.703,44.401 96.75,44.284 C97.005,43.648 97.591,43.316 97.809,42.582 Z M97.371,42.465 C97.512,42.594 97.722,42.945 97.543,42.783 C97.404,42.655 97.193,42.302 97.371,42.465 Z" id="Shape" fill="#B8BBBD"></path>
            <path d="M99.766,49.076 C100.07,48.188 101.348,48.199 101.929,47.601 C103.817,45.663 105.189,43.396 107.165,41.891 C107.309,41.784 107.555,41.617 107.646,41.456 C107.836,41.122 106.467,40.372 106.189,40.358 C104.433,40.267 103.782,41.34 103.429,42.37 C102.135,46.155 97.108,46.441 96.983,51.109 C96.979,51.273 96.946,51.95 97.547,52.051 C98.162,52.154 98.354,51.408 98.416,51.263 C98.762,50.478 99.46,49.967 99.766,49.076 Z M99.273,49.038 C99.423,49.156 99.635,49.514 99.446,49.366 C99.296,49.249 99.083,48.89 99.273,49.038 Z" id="Shape" fill="#B8BBBD"></path>
            <path d="M98.137,56.99 C98.725,55.756 100.305,55.4 101.167,54.46 C103.966,51.412 106.202,48.09 109.011,45.575 C109.212,45.395 109.558,45.108 109.71,44.875 C110.024,44.389 108.507,43.816 108.167,43.88 C106.014,44.271 104.952,45.845 104.271,47.276 C101.768,52.535 95.473,54.36 94.208,60.421 C94.165,60.633 93.962,61.517 94.684,61.473 C95.421,61.428 95.835,60.41 95.948,60.205 C96.561,59.09 97.546,58.229 98.137,56.99 Z M97.537,57.084 C97.694,57.192 97.873,57.593 97.672,57.457 C97.514,57.35 97.335,56.947 97.537,57.084 Z" id="Shape" fill="#B8BBBD"></path>
            <path d="M97.5,63.285 C98.283,61.896 100.037,61.413 101.082,60.33 C104.475,56.82 107.293,53.043 110.633,50.117 C110.873,49.908 111.279,49.573 111.473,49.307 C111.871,48.755 110.301,48.216 109.924,48.306 C107.547,48.862 106.211,50.651 105.301,52.262 C101.963,58.181 94.937,60.554 92.84,67.28 C92.768,67.516 92.443,68.497 93.228,68.407 C94.032,68.314 94.602,67.172 94.749,66.941 C95.542,65.683 96.712,64.68 97.5,63.285 Z M96.837,63.423 C96.995,63.532 97.141,63.962 96.941,63.824 C96.785,63.716 96.638,63.285 96.837,63.423 Z" id="Shape" fill="#B8BBBD"></path>
            <path d="M97.794,71.053 C98.632,69.536 100.466,68.896 101.572,67.68 C105.165,63.739 108.165,59.559 111.691,56.235 C111.945,55.997 112.376,55.615 112.581,55.321 C113.007,54.711 111.378,54.264 110.982,54.386 C108.499,55.149 107.077,57.129 106.102,58.888 C102.526,65.355 95.166,68.377 92.872,75.598 C92.792,75.851 92.436,76.906 93.257,76.752 C94.095,76.594 94.708,75.352 94.863,75.099 C95.714,73.718 96.951,72.577 97.794,71.053 Z M97.103,71.249 C97.265,71.352 97.41,71.792 97.203,71.663 C97.041,71.56 96.896,71.119 97.103,71.249 Z" id="Shape" fill="#B8BBBD"></path>
            <path d="M100.563,74.872 C101.201,73.562 102.839,73.121 103.751,72.104 C106.716,68.807 109.108,65.251 112.068,62.508 C112.282,62.311 112.644,61.998 112.807,61.748 C113.145,61.228 111.595,60.701 111.241,60.783 C109.012,61.286 107.876,62.971 107.137,64.491 C104.42,70.074 97.883,72.256 96.422,78.617 C96.371,78.84 96.141,79.767 96.885,79.689 C97.647,79.609 98.101,78.532 98.221,78.314 C98.882,77.128 99.921,76.188 100.563,74.872 Z M99.94,74.997 C100.101,75.102 100.274,75.512 100.071,75.379 C99.912,75.274 99.737,74.864 99.94,74.997 Z" id="Shape" fill="#B8BBBD"></path>
            <path d="M90.233,113.491 C90.25,112.853 91.31,113.029 91.632,112.648 C92.68,111.418 93.212,109.869 94.45,108.978 C94.54,108.915 94.698,108.82 94.732,108.709 C94.801,108.48 93.467,107.728 93.233,107.681 C91.754,107.38 91.501,108.116 91.483,108.855 C91.419,111.573 87.331,111.13 88.468,114.676 C88.508,114.8 88.66,115.314 89.186,115.47 C89.723,115.628 89.684,115.084 89.697,114.984 C89.775,114.43 90.216,114.131 90.233,113.491 Z M89.815,113.396 C89.97,113.505 90.242,113.808 90.044,113.668 C89.89,113.561 89.619,113.259 89.815,113.396 Z" id="Shape" fill="#B8BBBD"></path>
            <path d="M93.01,120.294 C93.399,119.143 94.85,118.784 95.538,117.898 C97.778,115.029 99.448,111.916 101.769,109.538 C101.936,109.367 102.223,109.098 102.336,108.878 C102.568,108.422 101.052,107.921 100.735,107.986 C98.746,108.386 97.953,109.861 97.502,111.198 C95.845,116.107 90.121,117.912 89.748,123.539 C89.734,123.736 89.664,124.557 90.343,124.503 C91.035,124.447 91.291,123.498 91.369,123.309 C91.8,122.266 92.621,121.452 93.01,120.294 Z M92.453,120.393 C92.619,120.492 92.842,120.858 92.633,120.737 C92.468,120.639 92.244,120.271 92.453,120.393 Z" id="Shape" fill="#B8BBBD"></path>
            <path d="M95.669,123.557 C96.247,122.153 97.889,121.541 98.762,120.411 C101.598,116.746 103.839,112.871 106.7,109.773 C106.905,109.55 107.257,109.195 107.409,108.923 C107.724,108.357 106.124,107.967 105.768,108.085 C103.532,108.815 102.467,110.653 101.795,112.28 C99.332,118.262 92.812,121.133 91.664,127.791 C91.625,128.024 91.438,128.997 92.19,128.847 C92.959,128.691 93.363,127.541 93.473,127.308 C94.083,126.029 95.089,124.966 95.669,123.557 Z M95.044,123.745 C95.212,123.837 95.409,124.24 95.196,124.123 C95.03,124.032 94.832,123.627 95.044,123.745 Z" id="Shape" fill="#B8BBBD"></path>
            <path d="M97.166,129.607 C97.989,127.773 99.9,126.695 101.02,125.135 C104.651,120.078 107.645,114.883 111.231,110.519 C111.49,110.206 111.926,109.699 112.131,109.334 C112.556,108.578 110.815,108.422 110.402,108.638 C107.809,109.984 106.388,112.445 105.434,114.574 C101.927,122.394 94.277,127.217 92.158,135.599 C92.084,135.892 91.754,137.121 92.612,136.786 C93.492,136.439 94.088,134.953 94.242,134.642 C95.082,132.955 96.339,131.451 97.166,129.607 Z M96.443,129.963 C96.621,130.042 96.791,130.496 96.566,130.397 C96.39,130.318 96.219,129.864 96.443,129.963 Z" id="Shape" fill="#B8BBBD"></path>
            <path d="M98.251,133.545 C99.077,131.768 100.979,130.768 102.097,129.272 C105.727,124.416 108.727,119.403 112.309,115.223 C112.568,114.922 113.003,114.438 113.208,114.087 C113.634,113.358 111.909,113.149 111.501,113.35 C108.921,114.591 107.499,116.966 106.54,119.028 C103.016,126.606 95.401,131.108 93.249,139.28 C93.173,139.567 92.839,140.764 93.691,140.46 C94.565,140.147 95.165,138.705 95.319,138.405 C96.166,136.771 97.419,135.332 98.251,133.545 Z M97.533,133.874 C97.709,133.957 97.873,134.408 97.652,134.303 C97.478,134.221 97.312,133.768 97.533,133.874 Z" id="Shape" fill="#B8BBBD"></path>
            <path d="M111.658,122.348 C110.64,124.377 108.553,125.628 107.25,127.37 C103.024,133.019 99.453,138.797 95.332,143.693 C95.035,144.046 94.535,144.615 94.291,145.017 C93.783,145.857 95.588,145.955 96.037,145.705 C98.861,144.134 100.557,141.395 101.734,139.043 C106.065,130.39 114.472,124.828 117.403,115.62 C117.506,115.298 117.957,113.946 117.028,114.349 C116.08,114.761 115.33,116.404 115.143,116.746 C114.121,118.62 112.678,120.309 111.658,122.348 Z M112.443,121.93 C112.265,121.852 112.127,121.366 112.351,121.464 C112.528,121.542 112.667,122.029 112.443,121.93 Z" id="Shape" fill="#B8BBBD"></path>
            <path d="M114.685,123.547 C113.807,125.504 111.831,126.717 110.658,128.399 C106.845,133.854 103.679,139.424 99.926,144.155 C99.655,144.494 99.197,145.044 98.982,145.432 C98.534,146.243 100.309,146.328 100.735,146.084 C103.413,144.561 104.915,141.92 105.932,139.65 C109.674,131.306 117.592,125.92 119.929,117.049 C120.01,116.737 120.371,115.439 119.487,115.829 C118.581,116.229 117.942,117.811 117.779,118.142 C116.882,119.95 115.568,121.581 114.685,123.547 Z M115.431,123.143 C115.251,123.067 115.087,122.6 115.315,122.696 C115.494,122.77 115.658,123.236 115.431,123.143 Z" id="Shape" fill="#B8BBBD"></path>
            <path d="M117.126,127.837 C116.372,129.684 114.507,130.807 113.45,132.386 C110.015,137.511 107.221,142.755 103.805,147.194 C103.56,147.511 103.142,148.028 102.951,148.393 C102.555,149.157 104.295,149.262 104.697,149.038 C107.232,147.629 108.558,145.143 109.431,143.003 C112.64,135.137 120.089,130.133 121.896,121.746 C121.959,121.452 122.244,120.222 121.398,120.581 C120.535,120.949 119.996,122.442 119.854,122.754 C119.082,124.454 117.882,125.982 117.126,127.837 Z M117.833,127.463 C117.653,127.389 117.469,126.943 117.693,127.036 C117.875,127.109 118.06,127.557 117.833,127.463 Z" id="Shape" fill="#B8BBBD"></path>
            <path d="M119.785,131.742 C119.309,133.222 117.707,134.007 116.916,135.24 C114.342,139.241 112.379,143.396 109.737,146.823 C109.547,147.068 109.22,147.466 109.088,147.756 C108.815,148.361 110.451,148.598 110.799,148.444 C112.992,147.477 113.924,145.508 114.476,143.791 C116.502,137.476 122.838,133.914 123.493,127.046 C123.515,126.806 123.63,125.799 122.886,126.028 C122.124,126.262 121.805,127.467 121.712,127.716 C121.194,129.074 120.263,130.253 119.785,131.742 Z M120.399,131.488 C120.223,131.411 119.996,131.021 120.216,131.12 C120.393,131.195 120.623,131.584 120.399,131.488 Z" id="Shape" fill="#B8BBBD"></path>
            <path d="M122.446,135.525 C122.312,136.508 121.033,136.828 120.565,137.588 C119.048,140.052 118.111,142.717 116.421,144.762 C116.3,144.908 116.085,145.143 116.024,145.329 C115.898,145.719 117.41,146.132 117.691,146.074 C119.462,145.714 119.91,144.451 120.065,143.31 C120.634,139.116 125.606,137.527 124.837,132.734 C124.81,132.566 124.712,131.868 124.091,131.92 C123.456,131.975 123.407,132.783 123.374,132.947 C123.181,133.836 122.582,134.538 122.446,135.525 Z M122.946,135.438 C122.773,135.356 122.492,135.045 122.711,135.147 C122.882,135.229 123.166,135.54 122.946,135.438 Z" id="Shape" fill="#B8BBBD"></path>
            <path d="M123.992,139.667 C124.086,140.266 123.028,140.204 122.781,140.591 C121.976,141.848 121.722,143.352 120.677,144.305 C120.601,144.373 120.462,144.477 120.448,144.584 C120.422,144.807 121.838,145.382 122.071,145.402 C123.55,145.541 123.672,144.829 123.564,144.132 C123.168,141.577 127.194,141.595 125.496,138.382 C125.435,138.269 125.201,137.804 124.668,137.708 C124.123,137.61 124.252,138.116 124.256,138.214 C124.276,138.744 123.898,139.064 123.992,139.667 Z M124.412,139.714 C124.244,139.626 123.931,139.37 124.143,139.481 C124.311,139.568 124.625,139.825 124.412,139.714 Z" id="Shape" fill="#B8BBBD"></path>
            <path d="M79.375,25.453 L77.18,25.622 L75.008,25.976 L73.923,26.149 L72.858,26.421 L70.728,26.965 C69.36,27.483 67.932,27.862 66.624,28.531 C65.964,28.848 65.272,29.109 64.636,29.472 L62.725,30.565 C60.257,32.136 57.88,33.921 55.927,36.114 L55.17,36.912 C54.926,37.185 54.713,37.484 54.484,37.769 L53.142,39.506 L51.985,41.364 C51.797,41.676 51.599,41.982 51.422,42.3 L50.948,43.282 L50.187,44.876 C49.935,45.407 49.77,45.975 49.558,46.523 L48.959,48.18 L48.521,49.885 C48.385,50.457 48.214,51.013 48.109,51.597 L47.843,53.368 C47.772,53.95 47.633,54.567 47.623,55.118 L47.541,56.795 C47.368,61.483 48.169,66.124 49.876,70.413 C53.235,79.025 60.353,85.871 68.759,89.023 L70.34,89.599 C70.863,89.799 71.42,89.896 71.957,90.048 L73.581,90.463 C74.127,90.589 74.7,90.648 75.258,90.739 L76.94,90.989 C77.49,91.047 78.015,91.05 78.551,91.083 L80.155,91.16 C80.815,91.17 81.292,91.113 81.868,91.093 C86.286,90.892 90.63,89.775 94.556,87.864 C102.436,84.063 108.521,77.11 111.384,69.086 C111.878,67.959 112.214,66.367 112.653,64.795 C112.893,63.17 113.248,61.455 113.216,60.288 C113.296,57.784 112.897,57.777 112.434,58.695 C111.956,59.605 111.505,61.477 111.152,62.607 C109.5,69.837 105.471,76.675 99.825,81.353 C94.231,86.099 87.229,88.605 80.808,88.89 C80.647,88.9 80.39,88.935 80.306,88.924 L79.733,88.913 L78.587,88.89 C77.818,88.879 77.05,88.87 76.347,88.747 L74.175,88.466 L72.009,87.955 C69.161,87.153 66.346,86.059 63.856,84.408 C58.803,81.245 54.732,76.526 52.317,71.087 C51.129,68.367 50.232,65.496 49.905,62.544 L49.749,61.443 C49.701,61.076 49.71,60.703 49.688,60.334 L49.6,58.115 L49.734,55.886 C49.762,55.511 49.77,55.125 49.815,54.758 L49.994,53.679 C50.833,47.884 53.46,42.339 57.282,37.959 L58.761,36.352 C59.288,35.851 59.841,35.376 60.377,34.887 C60.898,34.379 61.489,33.955 62.075,33.528 C62.672,33.116 63.209,32.62 63.85,32.277 C66.269,30.672 68.957,29.547 71.692,28.664 C74.46,27.849 77.327,27.466 80.199,27.389 L80.334,27.382 L80.367,27.38 C80.433,27.381 80.314,27.377 80.34,27.378 L80.41,27.381 L80.689,27.395 L81.248,27.422 L82.367,27.475 L83.484,27.527 C83.841,27.568 84.182,27.631 84.532,27.68 C85.226,27.79 85.922,27.874 86.619,27.997 L88.705,28.518 C91.45,29.316 94.153,30.371 96.582,31.914 L97.512,32.46 L98.387,33.09 C98.963,33.52 99.578,33.903 100.125,34.37 L101.76,35.785 C102.323,36.241 102.775,36.808 103.289,37.313 C104.342,38.313 105.166,39.507 106.092,40.626 C106.869,41.845 107.754,43.013 108.389,44.326 C109.133,45.586 109.666,46.943 110.243,48.294 C110.533,48.969 110.706,49.683 110.945,50.378 C111.174,51.078 111.411,51.778 111.54,52.503 C111.63,52.907 111.794,53.637 111.973,54.438 C112.15,55.242 112.223,56.132 112.367,56.828 C112.623,58.22 112.89,58.882 113.032,56.561 C113.301,54.172 112.672,50.609 111.668,47.554 C111.383,46.801 111.105,46.068 110.842,45.376 C110.558,44.694 110.211,44.088 109.938,43.527 C109.646,42.974 109.417,42.465 109.168,42.072 C108.918,41.68 108.717,41.366 108.576,41.149 C107.144,38.717 105.263,36.553 103.264,34.511 C102.192,33.559 101.165,32.545 99.968,31.726 C98.841,30.816 97.581,30.091 96.333,29.341 C93.769,27.982 91.056,26.785 88.163,26.188 L87.091,25.927 C86.732,25.846 86.354,25.815 85.985,25.759 L83.761,25.465 C83.038,25.424 82.323,25.42 81.604,25.399 L80.525,25.375 C80.074,25.382 79.761,25.427 79.375,25.453 Z M83.522,25.949 C83.302,25.702 84.97,25.568 85.224,25.845 C85.408,26.07 83.773,26.207 83.522,25.949 Z" id="Shape" fill="#B8BBBD"></path>
            <path d="M119.453,111.51 C116.621,108.938 112.955,107.145 108.883,107.438 L109.047,107.426 C103.698,107.063 98.392,106.585 93.174,106.447 C90.401,106.377 87.638,106.304 84.886,106.236 C82.125,106.202 79.377,106.169 76.643,106.133 C71.175,106.09 65.748,105.957 60.414,106.129 C57.743,106.181 55.086,106.232 52.445,106.281 L51.455,106.301 C51.039,106.327 50.731,106.39 50.364,106.433 C49.66,106.547 48.947,106.57 48.263,106.828 C46.878,107.193 45.529,107.785 44.349,108.615 C41.952,110.261 40.296,112.72 39.305,115.265 C38.344,117.855 37.861,120.461 37.826,123.222 C37.827,123.177 37.828,123.136 37.829,123.095 C37.298,129.161 36.766,134.888 36.194,140.534 C36.007,142.376 35.683,145.403 35.565,147.299 C35.319,151.236 37.164,147.392 37.536,145.528 C38.988,138.287 39.863,130.572 40.419,123.313 L40.423,123.259 L40.423,123.155 C40.448,119.007 41.569,114.769 43.87,111.998 C45.507,110.032 47.923,108.781 50.56,108.435 C50.88,108.39 51.234,108.316 51.528,108.291 L52.581,108.254 L54.686,108.187 L58.894,108.077 C61.698,108.03 64.504,107.922 67.299,107.973 C70.095,108.033 72.887,108.09 75.677,108.149 C81.255,108.276 86.817,108.458 92.374,108.709 C97.927,108.938 103.464,109.167 108.981,109.396 L109.044,109.398 L109.216,109.379 C109.938,109.3 110.904,109.353 111.745,109.51 C112.616,109.646 113.454,109.948 114.269,110.281 C115.895,110.985 117.336,112.094 118.547,113.432 L119.014,113.922 L119.424,114.469 C119.694,114.837 119.986,115.188 120.238,115.569 C120.687,116.376 121.244,117.112 121.604,117.977 C122.009,118.813 122.425,119.645 122.724,120.54 L123.222,121.856 C123.362,122.211 123.492,122.757 123.626,123.2 C124.782,126.944 125.689,130.591 126.335,134.363 L126.814,137.197 C126.958,138.143 127.042,139.096 127.165,140.05 C127.286,141.002 127.404,141.956 127.46,142.914 C127.522,143.871 127.637,144.831 127.665,145.792 C127.697,146.442 127.782,148.138 127.839,149.254 C127.913,150.373 128.095,150.931 128.528,149.131 C128.974,147.308 129.068,144.566 129.005,142.09 C128.964,140.855 128.835,139.687 128.759,138.73 C128.685,137.771 128.596,137.027 128.524,136.634 C128.203,134.488 127.971,132.318 127.476,130.13 C127.251,129.04 127.061,127.929 126.813,126.845 C126.522,125.783 126.23,124.72 125.937,123.65 L125.496,122.046 L125.386,121.645 L125.316,121.403 L125.243,121.2 L124.944,120.389 L124.34,118.77 C124.106,118.241 123.84,117.718 123.59,117.194 C122.554,115.119 121.234,113.107 119.453,111.51 Z M121.289,114.323 C121.308,114.205 121.619,114.329 121.86,114.564 C122.106,114.794 122.336,115.103 122.287,115.259 C122.197,115.507 121.253,114.605 121.289,114.323 Z" id="Shape" fill="#B8BBBD"></path>
        </g>
    </g>
</svg>