<?xml version="1.0" encoding="UTF-8"?>
<svg width="805px" height="561px" viewBox="0 0 805 561" version="1.1" xmlns="http://www.w3.org/2000/svg" xmlns:xlink="http://www.w3.org/1999/xlink">
    <!-- Generator: Sketch 52.1 (67048) - http://www.bohemiancoding.com/sketch -->
    <title>browserWindow</title>
    <desc>Created with Sketch.</desc>
    <g id="Page-1" stroke="none" stroke-width="1" fill="none" fill-rule="evenodd">
        <g id="browserWindow">
            <rect id="Rectangle" fill="#FFFFFF" fill-rule="nonzero" x="1" y="47" width="802" height="513"></rect>
            <path d="M641.187,44.228 C490.091,44.608 338.643,43.662 191.875,43.642 C127.2,43.642 62.879,43.642 2,43.643 L0.642,43.642 L0.642,45 C0.669,147.512 0.696,248.89 0.723,349.114 C0.742,399.226 0.758,449.052 0.775,498.585 C0.779,510.969 0.784,523.334 0.788,535.681 L0.791,544.939 L0.792,549.565 L0.792,551.878 L0.796,552.47 L0.838,553.168 C0.899,553.627 0.987,554.078 1.122,554.515 C1.669,556.254 2.748,557.754 4.2,558.836 C4.929,559.372 5.762,559.8 6.696,560.032 C7.845,560.297 8.489,560.178 9.28,560.206 L18.516,560.203 C43.137,560.197 67.685,560.19 92.162,560.182 C287.962,560.233 479.074,560.281 665.344,560.328 C696.318,560.344 747.279,560.37 779.038,560.387 C787.285,560.375 793.461,560.342 797.89,560.292 C799.333,560.273 800.612,559.683 801.441,558.946 C802.295,558.217 802.815,557.408 803.173,556.685 C803.878,555.215 803.989,554.114 804.038,553.357 C804.065,552.628 804.003,552.417 803.967,552.427 C803.945,552.445 803.918,552.538 803.889,552.706 C803.862,552.867 803.828,553.112 803.759,553.477 C803.626,554.168 803.396,555.112 802.828,556.21 C802.249,557.263 801.301,558.575 799.633,559.189 C798.817,559.511 797.837,559.485 797.02,559.445 C796.157,559.42 795.25,559.393 794.307,559.367 C792.42,559.319 790.384,559.266 788.24,559.214 C783.95,559.126 779.226,559.028 774.396,558.93 C764.735,558.757 754.647,558.622 746.755,558.57 C548.554,557.218 331.925,557.469 156.694,557.911 C128.837,557.972 100.988,558.032 73.152,558.093 C59.235,558.117 45.319,558.141 31.409,558.165 L10.544,558.195 C9.698,558.193 8.754,558.207 7.988,558.19 C7.492,558.163 7.282,558.122 6.899,558 C6.545,557.896 6.205,557.731 5.877,557.542 C4.564,556.771 3.519,555.453 3.049,553.995 C2.94,553.628 2.858,553.257 2.817,552.882 L2.789,552.31 L2.788,551.66 L2.785,549.053 L2.778,543.838 C2.735,488.218 2.692,432.652 2.649,377.15 C2.687,266.147 2.724,155.403 2.762,45 L2,45.762 C271.293,45.982 538.65,46.392 803,46.115 L801.885,45 C802.036,190.542 802.397,335.141 803.112,478.671 C803.22,500.304 803.655,591.817 804.167,532.925 C804.688,472.635 804.322,353.322 804.271,327.206 C804.19,235.718 804.106,141.433 804.02,45 L804.019,43.981 L803,43.983 C749.857,44.063 695.669,44.146 641.187,44.228 Z M695.28,44.615 C692.471,44.425 713.423,44.026 716.979,44.266 C719.788,44.455 698.838,44.855 695.28,44.615 Z" id="Shape" fill="#959A9D" fill-rule="nonzero"></path>
            <g id="Group" transform="translate(0.000000, 23.000000)">
                <rect id="Rectangle" fill="#F6F7F8" x="1.625" y="1.938" width="801" height="21"></rect>
                <path d="M404.839,1.228 C310.197,1.608 215.337,0.662 123.408,0.642 C82.16,0.642 41.144,0.643 2,0.643 L0.643,0.643 L0.643,2 C0.644,9.261 0.646,16.158 0.648,23 L0.648,24.352 L2,24.352 C250.576,24.281 488.072,23.967 714.179,24.327 C733.579,24.343 765.499,24.369 785.393,24.385 C826.72,24.298 784.945,22.783 765.172,22.57 C641.026,21.219 505.339,21.47 395.581,21.91 C263.873,22.438 132.553,22.422 2,22.267 L2.733,23 C2.743,15.99 2.752,8.981 2.759,2 L2,2.759 C264.363,3.098 523.769,3.908 777.826,1.889 C782.697,1.844 793.227,1.747 803,1.657 L803.339,1.654 L803.343,2 C803.541,19.417 803.838,34.433 804.164,10.809 C804.189,8.346 804.218,5.726 804.256,2 L804.269,0.757 L803,0.744 C764.545,0.36 698.245,0.682 682.954,0.731 C593.567,0.891 499.919,1.058 404.839,1.228 Z M438.722,1.615 C436.962,1.425 450.084,1.026 452.313,1.266 C454.072,1.455 440.949,1.855 438.722,1.615 Z" id="Shape" fill="#959A9D" fill-rule="nonzero"></path>
            </g>
            <g id="Group">
                <path d="M802.625,24.938 L1.625,24.938 L1.625,6.455 C1.625,3.693 4.761,1.937 7.55,1.937 L798.448,1.937 C801.238,1.937 802.625,3.693 802.625,6.455 L802.625,24.938 Z" id="Path" fill="#EAEBED"></path>
                <path d="M405.004,1.228 C310.358,1.608 215.492,0.662 123.559,0.642 C99.296,0.639 75.115,0.637 51.282,0.635 C39.366,0.637 27.537,0.639 15.829,0.64 C14.366,0.64 12.903,0.64 11.443,0.64 L9.256,0.64 L8.163,0.64 L7.617,0.64 L6.977,0.663 C5.255,0.79 3.52,1.413 2.18,2.753 C1.518,3.428 0.996,4.284 0.778,5.288 C0.728,5.541 0.666,5.889 0.669,6.025 L0.65,6.297 L0.644,6.518 L0.644,6.654 L0.644,7.74 C0.646,13.529 0.647,19.284 0.648,25 L0.648,26.352 L2,26.352 C250.573,26.281 488.068,25.967 714.175,26.327 C733.575,26.343 765.496,26.369 785.393,26.385 C826.721,26.298 784.944,24.783 765.17,24.57 C641.018,23.219 505.322,23.47 395.561,23.91 C263.859,24.438 132.546,24.422 2,24.267 L2.733,25 L2.749,12.368 C2.761,10.285 2.73,8.109 2.78,6.102 C2.858,5.313 3.304,4.5 4,3.952 C4.682,3.378 5.58,3.018 6.498,2.858 C7.376,2.702 8.468,2.79 9.519,2.768 L12.675,2.772 L18.986,2.78 L31.604,2.798 C48.426,2.823 65.235,2.848 82.031,2.873 C115.624,2.924 149.163,2.976 182.644,3.027 C249.608,3.088 316.342,3.148 382.805,3.208 C515.732,3.216 647.576,2.925 778.011,1.889 C781.399,1.86 787.522,1.808 794.225,1.75 C795.063,1.742 795.91,1.734 796.762,1.726 L798.041,1.713 L798.362,1.71 L798.442,1.71 L798.546,1.716 L798.705,1.727 L799.348,1.771 C800.24,1.925 801.174,2.199 801.858,2.846 C802.536,3.471 803.045,4.304 803.213,5.195 C803.33,5.631 803.325,6.086 803.371,6.519 C803.377,6.936 803.382,7.351 803.387,7.762 C803.398,8.585 803.408,9.397 803.419,10.192 C803.441,11.782 803.465,13.307 803.485,14.734 C803.673,26.147 803.908,31.255 804.163,12.811 C804.179,11.631 804.193,10.415 804.21,9.165 C804.218,8.54 804.225,7.907 804.231,7.266 C804.229,6.931 804.252,6.657 804.228,6.266 C804.19,5.871 804.2,5.479 804.105,5.077 C803.927,4.279 803.629,3.437 803.043,2.744 C802.513,2.008 801.708,1.511 800.901,1.157 C800.481,0.988 799.997,0.892 799.544,0.788 L799.024,0.743 L798.764,0.721 L798.634,0.71 L798.57,0.7 L798.4,0.694 C797.702,0.689 796.997,0.684 796.286,0.678 C790.597,0.651 784.515,0.621 778.228,0.591 C765.655,0.584 752.261,0.575 739.537,0.568 C714.089,0.642 691.313,0.708 683.135,0.732 C593.741,0.891 500.089,1.058 405.004,1.228 Z M438.888,1.615 C437.128,1.425 450.252,1.026 452.481,1.266 C454.239,1.455 441.115,1.855 438.888,1.615 Z" id="Shape" fill="#959A9D" fill-rule="nonzero"></path>
            </g>
            <g id="Group" opacity="0.71" transform="translate(10.000000, 9.000000)" fill="#83888C">
                <circle id="Oval" cx="5.589" cy="4.955" r="3.5"></circle>
                <g fill-rule="nonzero" id="Shape">
                    <path d="M5.449,0.437 C4.654,0.724 3.907,0.758 3.032,0.994 C2.216,1.25 1.259,1.718 0.85,2.583 C0.659,2.876 0.525,3.358 0.415,3.775 C0.39,3.877 0.357,4.004 0.346,4.084 L0.329,4.269 L0.297,4.638 L0.29,4.73 L0.277,4.96 L0.284,5.029 L0.31,5.307 L0.381,5.86 C0.441,6.223 0.589,6.572 0.708,6.917 C1.3,8.283 2.436,9.273 3.812,9.736 C4.006,9.794 4.204,9.845 4.398,9.89 L4.69,9.953 C4.773,9.967 4.815,9.963 4.879,9.969 L5.233,9.992 L5.41,10.004 L5.591,10.013 L5.623,10.01 L5.686,10.004 L5.812,9.991 C6.49,9.947 7.151,9.778 7.758,9.496 C8.981,8.907 9.936,7.989 10.558,6.653 C10.647,6.441 10.762,6.151 10.847,5.853 C10.888,5.677 10.912,5.511 10.898,5.374 C10.838,4.813 8.773,5.165 8.463,5.399 C8.234,5.622 7.963,5.683 7.782,5.74 C7.615,5.784 7.428,5.834 7.273,5.89 C7.137,5.95 7.005,5.989 6.885,6.026 C6.782,6.076 6.693,6.123 6.597,6.16 C6.268,6.34 6.054,6.683 5.613,6.996 L5.593,7.012 L5.584,7.02 C5.873,7.036 5.662,7.025 5.725,7.029 L5.721,7.03 L5.713,7.032 L5.648,7.05 L5.518,7.084 L5.258,7.145 L4.999,7.197 L4.873,7.209 C4.783,7.211 4.689,7.246 4.575,7.222 L4.219,7.118 C3.77,6.913 3.37,6.531 3.203,6.051 C3.058,5.557 3.001,5.1 3.21,4.57 C3.231,4.497 3.245,4.387 3.276,4.344 L3.367,4.234 C3.432,4.159 3.441,4.103 3.527,4.017 C3.677,3.849 3.812,3.691 3.995,3.579 C4.331,3.341 4.687,3.188 5.046,3.142 C5.214,3.074 5.4,3.117 5.574,3.063 C5.489,3.071 6.3,3.068 6.214,3.097 C6.271,3.108 6.322,3.074 6.413,3.083 C6.508,3.104 6.609,3.119 6.723,3.127 C6.931,3.168 7.18,3.209 7.426,3.296 C7.963,3.443 8.513,3.756 9.171,4.315 C9.251,4.395 9.458,4.62 9.722,4.793 C9.986,4.957 10.309,5.084 10.621,4.721 C10.946,4.34 10.933,3.721 10.7,3.24 C10.523,2.736 10.121,2.423 10.03,2.295 C9.418,1.641 8.77,1.046 7.969,0.68 C7.761,0.591 7.594,0.49 7.348,0.43 C7.106,0.368 6.86,0.319 6.619,0.286 C6.339,0.236 6.253,0.293 6.069,0.309 C5.869,0.351 5.662,0.394 5.449,0.437 Z M5.982,0.979 C5.984,0.725 6.212,0.212 6.211,0.534 C6.208,0.787 5.979,1.301 5.982,0.979 Z"></path>
                </g>
            </g>
            <g id="Group" opacity="0.71" transform="translate(25.000000, 9.000000)" fill="#83888C">
                <circle id="Oval" cx="6" cy="4.955" r="3.5"></circle>
                <g fill-rule="nonzero" id="Shape">
                    <path d="M5.86,0.437 C5.066,0.724 4.318,0.758 3.443,0.994 C2.628,1.25 1.671,1.718 1.262,2.583 C1.07,2.876 0.937,3.358 0.827,3.775 C0.802,3.877 0.769,4.004 0.758,4.084 L0.741,4.269 L0.709,4.638 L0.702,4.73 L0.689,4.96 L0.695,5.029 L0.722,5.307 L0.793,5.86 C0.853,6.223 1.001,6.572 1.12,6.917 C1.712,8.283 2.848,9.273 4.224,9.736 C4.418,9.794 4.615,9.846 4.809,9.891 L5.101,9.954 C5.184,9.968 5.226,9.964 5.29,9.97 L5.644,9.993 L5.82,10.005 L6.002,10.014 L6.034,10.011 L6.097,10.005 L6.223,9.993 C6.9,9.949 7.563,9.78 8.169,9.498 C9.392,8.909 10.347,7.991 10.969,6.655 C11.058,6.443 11.173,6.153 11.258,5.854 C11.299,5.678 11.323,5.512 11.309,5.375 C11.249,4.814 9.184,5.166 8.874,5.4 C8.645,5.623 8.374,5.685 8.192,5.741 C8.025,5.785 7.839,5.835 7.684,5.891 C7.548,5.951 7.416,5.99 7.296,6.027 C7.192,6.077 7.104,6.125 7.008,6.161 C6.68,6.341 6.466,6.684 6.023,6.997 L6.005,7.013 L6,7.02 C6.288,7.035 6.077,7.025 6.141,7.029 L6.137,7.03 L6.129,7.032 L6.064,7.05 L5.934,7.084 L5.674,7.145 L5.415,7.197 L5.289,7.209 C5.199,7.211 5.105,7.246 4.99,7.222 L4.634,7.118 C4.185,6.913 3.785,6.531 3.618,6.051 C3.473,5.557 3.416,5.1 3.625,4.57 C3.646,4.497 3.66,4.387 3.691,4.344 L3.782,4.234 C3.847,4.159 3.856,4.103 3.942,4.017 C4.092,3.849 4.227,3.691 4.41,3.579 C4.746,3.341 5.102,3.188 5.461,3.142 C5.629,3.074 5.815,3.117 5.988,3.063 C5.902,3.071 6.715,3.067 6.629,3.097 C6.686,3.108 6.736,3.075 6.828,3.083 C6.923,3.104 7.024,3.119 7.138,3.127 C7.346,3.168 7.595,3.209 7.841,3.296 C8.378,3.443 8.928,3.756 9.586,4.315 C9.666,4.395 9.873,4.62 10.137,4.793 C10.401,4.957 10.724,5.084 11.036,4.721 C11.36,4.341 11.348,3.721 11.114,3.24 C10.937,2.736 10.535,2.423 10.443,2.295 C9.832,1.641 9.184,1.046 8.383,0.68 C8.175,0.592 8.008,0.491 7.762,0.43 C7.52,0.368 7.274,0.319 7.033,0.286 C6.753,0.235 6.668,0.293 6.484,0.309 C6.28,0.351 6.073,0.394 5.86,0.437 Z M6.394,0.979 C6.396,0.725 6.624,0.212 6.623,0.534 C6.619,0.787 6.391,1.301 6.394,0.979 Z"></path>
                </g>
            </g>
            <g id="Group" opacity="0.71" transform="translate(41.000000, 9.000000)" fill="#83888C">
                <circle id="Oval" cx="5.411" cy="4.955" r="3.5"></circle>
                <g fill-rule="nonzero" id="Shape">
                    <path d="M5.271,0.437 C4.477,0.724 3.729,0.758 2.854,0.994 C2.039,1.25 1.082,1.718 0.673,2.583 C0.482,2.876 0.348,3.358 0.237,3.775 C0.213,3.877 0.18,4.003 0.169,4.084 L0.151,4.269 L0.12,4.638 L0.112,4.73 L0.1,4.96 L0.106,5.029 L0.133,5.307 L0.204,5.86 C0.265,6.224 0.412,6.572 0.531,6.917 C1.124,8.283 2.26,9.273 3.635,9.736 C3.829,9.794 4.026,9.845 4.221,9.891 L4.513,9.954 C4.596,9.968 4.638,9.964 4.703,9.97 L5.057,9.993 L5.234,10.005 L5.415,10.014 L5.446,10.011 L5.509,10.005 L5.636,9.993 C6.313,9.949 6.976,9.78 7.582,9.498 C8.805,8.909 9.76,7.991 10.382,6.655 C10.471,6.443 10.586,6.153 10.671,5.854 C10.712,5.679 10.735,5.512 10.722,5.375 C10.662,4.814 8.597,5.166 8.287,5.4 C8.058,5.623 7.787,5.684 7.605,5.741 C7.438,5.785 7.252,5.835 7.097,5.891 C6.961,5.951 6.829,5.99 6.709,6.027 C6.605,6.077 6.517,6.125 6.421,6.161 C6.092,6.341 5.879,6.684 5.436,6.997 L5.417,7.013 L5.408,7.021 C5.696,7.036 5.485,7.025 5.549,7.029 L5.545,7.03 L5.537,7.032 L5.472,7.05 L5.342,7.084 L5.082,7.145 L4.824,7.197 L4.7,7.209 C4.609,7.211 4.516,7.246 4.401,7.222 L4.045,7.118 C3.596,6.913 3.195,6.531 3.028,6.051 C2.884,5.556 2.827,5.1 3.036,4.57 C3.057,4.497 3.07,4.387 3.102,4.345 L3.192,4.234 C3.258,4.159 3.267,4.103 3.353,4.018 C3.503,3.85 3.638,3.692 3.82,3.58 C4.157,3.342 4.513,3.189 4.872,3.143 C5.04,3.075 5.226,3.118 5.399,3.065 C5.313,3.072 6.126,3.069 6.04,3.098 C6.097,3.109 6.147,3.075 6.238,3.084 C6.334,3.105 6.435,3.12 6.549,3.128 C6.757,3.169 7.006,3.21 7.252,3.297 C7.789,3.444 8.339,3.757 8.997,4.316 C9.077,4.396 9.284,4.621 9.548,4.794 C9.812,4.958 10.135,5.085 10.446,4.722 C10.771,4.341 10.759,3.722 10.525,3.241 C10.349,2.737 9.946,2.424 9.855,2.296 C9.244,1.642 8.596,1.047 7.796,0.681 C7.588,0.592 7.421,0.491 7.174,0.431 C6.932,0.369 6.686,0.32 6.444,0.287 C6.165,0.236 6.08,0.294 5.896,0.31 C5.691,0.351 5.484,0.394 5.271,0.437 Z M5.805,0.979 C5.807,0.725 6.035,0.212 6.034,0.534 C6.03,0.787 5.802,1.301 5.805,0.979 Z"></path>
                </g>
            </g>
            <g id="Group" transform="translate(64.000000, 8.000000)">
                <path d="M105.5,2.739 C105.104,1.55 104.157,0.937 102.5,0.937 L11.5,0.937 C9.843,0.937 8.896,1.592 8.5,2.739 L4.5,15.287 C4.155,16.285 2.5,16.937 2.5,16.937 L111.5,16.937 C111.5,16.937 109.844,16.378 109.5,15.287 L105.5,2.739 Z" id="Path" fill="#F6F7F8"></path>
                <path d="M66.372,16.485 C52.601,16.738 38.796,16.108 25.419,16.094 C17.612,16.097 9.862,16.1 2.5,16.102 C2.617,16.705 2.727,17.269 2.836,17.832 C3.454,17.558 3.968,17.268 4.503,16.801 C4.72,16.652 5.179,16.048 5.216,15.895 L5.263,15.803 L5.286,15.757 C5.313,15.691 5.241,15.873 5.35,15.603 L5.358,15.578 L5.421,15.381 L5.546,14.986 L6.543,11.836 C7.206,9.738 7.867,7.647 8.525,5.561 L9.019,3.998 L9.266,3.217 C9.309,3.067 9.336,3.009 9.379,2.915 C9.413,2.824 9.451,2.738 9.504,2.671 C9.69,2.372 9.952,2.171 10.321,2.036 C10.511,1.965 10.704,1.931 10.894,1.899 C11.096,1.873 11.468,1.858 11.64,1.857 C13.815,1.852 15.985,1.846 18.147,1.841 C26.798,1.821 35.351,1.802 43.804,1.783 C60.71,1.757 77.221,1.766 93.333,1.884 C94.745,1.894 96.612,1.908 98.487,1.922 C99.425,1.925 100.365,1.928 101.252,1.931 C101.692,1.931 102.121,1.931 102.529,1.931 C102.881,1.937 103.2,1.966 103.463,2.027 C104.005,2.158 104.239,2.367 104.42,2.531 C104.54,2.617 104.71,2.901 104.794,2.979 C104.887,3.065 104.937,3.029 104.953,2.899 C104.966,2.779 104.957,2.514 104.891,2.325 C104.844,2.095 104.658,1.818 104.391,1.558 C104.099,1.332 103.713,1.109 103.276,1.009 C102.394,0.791 101.471,0.765 100.755,0.711 C82.69,-0.189 62.944,-0.022 46.974,0.272 C37.76,0.441 28.559,0.527 19.377,0.558 L12.495,0.572 C11.933,0.576 11.339,0.553 10.736,0.626 C10.09,0.701 9.457,0.915 8.929,1.365 C8.399,1.793 8.107,2.499 7.966,3.03 L7.443,4.666 L5.343,11.203 L4.29,14.467 L4.158,14.875 L4.092,15.079 L4.059,15.181 C4.07,15.155 4.03,15.258 4.083,15.126 L4.077,15.138 L4.064,15.161 L4.04,15.209 C3.894,15.519 3.799,15.585 3.627,15.754 C3.27,16.08 2.78,16.358 2.319,16.557 L0.22,17.465 L2.497,17.476 C39.32,17.662 75.761,18.232 111.497,17.22 L112.684,17.186 L111.571,16.79 C110.898,16.551 110.204,16.174 109.798,15.602 C109.625,15.319 109.512,14.93 109.383,14.576 L109.002,13.497 L107.467,9.193 C106.8,7.336 103.993,-0.524 105.298,4.694 C105.749,6.499 106.451,8.869 107.207,11.287 C107.592,12.494 107.981,13.714 108.355,14.884 L108.498,15.32 C108.556,15.481 108.561,15.562 108.684,15.817 C108.874,16.274 109.163,16.598 109.444,16.851 C110.03,17.359 110.573,17.628 111.2,17.866 C111.317,17.168 111.409,16.624 111.501,16.08 C109.278,16.114 107.615,16.14 106.843,16.152 C93.835,16.342 80.207,16.231 66.372,16.485 Z M71.302,16.743 C71.046,16.617 72.955,16.35 73.28,16.511 C73.536,16.637 71.626,16.904 71.302,16.743 Z" id="Shape" fill="#959A9D" fill-rule="nonzero"></path>
            </g>
        </g>
    </g>
</svg>